<svg width="167" height="144" viewBox="0 0 167 144" fill="none" xmlns="http://www.w3.org/2000/svg">
    <rect y="10" width="146" height="134" rx="5" fill="black" fill-opacity="0.06" style="mix-blend-mode:multiply"/>
    <rect x="21" width="146" height="134" rx="5" fill="#1E9ED5"/>
    <path d="M46.536 84V80.736H53.32V43.616H46.664V40.352H66.568V43.616H59.976V80.736H66.696V84H46.536ZM70.7905 84V80.736H76.9985V43.616H70.9185V40.352H83.7185V84H70.7905ZM83.7185 84V80.288H110.919V84H83.7185ZM94.8545 68.192C94.8545 66.3573 94.5132 65.056 93.8305 64.288C93.1478 63.4773 91.9318 63.072 90.1825 63.072H98.3745V73.632H94.8545V68.192ZM83.7185 63.072V59.424H98.3745V63.072H83.7185ZM102.215 80.288C104.092 80.288 105.393 79.8827 106.119 79.072C106.844 78.2613 107.207 76.8747 107.207 74.912V68.128H110.919V80.288H102.215ZM90.1825 59.424C91.9318 59.424 93.1478 59.04 93.8305 58.272C94.5132 57.504 94.8545 56.2027 94.8545 54.368V50.528H98.3745V59.424H90.1825ZM83.7185 44V40.352H110.471V44H83.7185ZM106.694 49.44C106.694 47.4347 106.311 46.0267 105.543 45.216C104.817 44.4053 103.516 44 101.639 44H110.471V55.648H106.694V49.44ZM117.234 84V80.736H120.562L132.978 66.016H138.29L150.258 80.736H153.522V84H137.01V80.736H142.642L133.362 68.896H135.538L125.81 80.736H131.378V84H117.234ZM132.274 68.768L120.818 54.624H117.682V51.296H133.554V54.624H128.306L137.266 65.824H135.026L144.37 54.624H139.25V51.296H152.754V54.624H149.618L137.65 68.768H132.274Z" fill="white"/>
</svg>
